[h264 @ 0x55672b080880] Reinit context to 960x544, pix_fmt: yuv420p
Input #0, mov,mp4,m4a,3gp,3g2,mj2, from '/var/www/html/project/media/video/original/VID-20250731-WA0094.mp4':
  Metadata:
    major_brand     : mp42
    minor_version   : 0
    compatible_brands: mp42isom
  Duration: 00:00:38.19, start: 0.000000, bitrate: 2790 kb/s
    Stream #0:0(und): Video: h264 (Constrained Baseline), 1 reference frame (avc1 / 0x31637661), yuv420p(left), 960x544 [SAR 1:1 DAR 30:17], 2470 kb/s, 23.98 fps, 23.98 tbr, 23976 tbn, 47.95 tbc (default)
    Metadata:
      encoder         : AVC Coding
    Stream #0:1(und): Audio: aac (LC) (mp4a / 0x6134706D), 48000 Hz, stereo, fltp, 317 kb/s (default)
[h264 @ 0x55672b0b9980] Reinit context to 1280x720, pix_fmt: yuv420p
Input #1, mov,mp4,m4a,3gp,3g2,mj2, from '/var/www/html/project/static/images/templates/Codino.mp4':
  Metadata:
    major_brand     : mp42
    minor_version   : 1
    compatible_brands: isommp41mp42
    creation_time   : 2021-07-11T07:02:58.000000Z
  Duration: 00:00:02.00, start: 0.000000, bitrate: 1007 kb/s
    Stream #1:0(ita): Audio: aac (LC) (mp4a / 0x6134706D), 44100 Hz, stereo, fltp, 102 kb/s (default)
    Metadata:
      creation_time   : 2021-07-11T07:02:58.000000Z
      handler_name    : Core Media Audio
    Stream #1:1(und): Video: h264 (High), 1 reference frame (avc1 / 0x31637661), yuv420p(tv, bt709, progressive, left), 1280x720 [SAR 1:1 DAR 16:9], 813 kb/s, 25 fps, 25 tbr, 25k tbn, 50k tbc (default)
    Metadata:
      creation_time   : 2021-07-11T07:02:58.000000Z
      handler_name    : Core Media Video
[Parsed_scale_0 @ 0x55672b0cb900] w:1280 h:720 flags:'bilinear' interl:0
[Parsed_scale_2 @ 0x55672b1798c0] w:1280 h:720 flags:'bilinear' interl:0
Stream mapping:
  Stream #0:0 (h264) -> scale
  Stream #0:1 (aac) -> concat:in0:a0
  Stream #1:0 (aac) -> concat:in1:a0
  Stream #1:1 (h264) -> scale
  concat:out:v0 -> Stream #0:0 (libx264)
  concat:out:a0 -> Stream #0:1 (aac)
Press [q] to stop, [?] for help
[h264 @ 0x55672b12bd40] Reinit context to 960x544, pix_fmt: yuv420p
[h264 @ 0x55672b584080] Reinit context to 1280x720, pix_fmt: yuv420p
[Parsed_scale_0 @ 0x55672c178080] w:1280 h:720 flags:'bilinear' interl:0
[Parsed_scale_2 @ 0x55672c17fec0] w:1280 h:720 flags:'bilinear' interl:0
[graph 0 input from stream 0:0 @ 0x55672c183040] w:960 h:544 pixfmt:yuv420p tb:1/23976 fr:24000/1001 sar:1/1 sws_param:flags=2
[graph 0 input from stream 1:1 @ 0x55672c184100] w:1280 h:720 pixfmt:yuv420p tb:1/25000 fr:25/1 sar:1/1 sws_param:flags=2
[graph_0_in_0_1 @ 0x55672c1850c0] tb:1/48000 samplefmt:fltp samplerate:48000 chlayout:0x3
[graph_0_in_1_0 @ 0x55672c186200] tb:1/44100 samplefmt:fltp samplerate:44100 chlayout:0x3
[Parsed_concat_4 @ 0x55672c1810c0] auto-inserting filter 'auto_resampler_0' between the filter 'graph_0_in_1_0' and the filter 'Parsed_concat_4'
[Parsed_scale_0 @ 0x55672c178080] w:960 h:544 fmt:yuv420p sar:1/1 -> w:1280 h:720 fmt:yuv420p sar:135/136 flags:0x2
[Parsed_setsar_1 @ 0x55672c17fb00] w:1280 h:720 sar:135/136 dar:30/17 -> sar:1/1 dar:16/9
[Parsed_scale_2 @ 0x55672c17fec0] w:1280 h:720 fmt:yuv420p sar:1/1 -> w:1280 h:720 fmt:yuv420p sar:1/1 flags:0x2
[Parsed_setsar_3 @ 0x55672c1802c0] w:1280 h:720 sar:1/1 dar:16/9 -> sar:1/1 dar:16/9
[auto_resampler_0 @ 0x55672c18c300] ch:2 chl:stereo fmt:fltp r:44100Hz -> ch:2 chl:stereo fmt:fltp r:48000Hz
[libx264 @ 0x55672b1992c0] using SAR=1/1
[libx264 @ 0x55672b1992c0] using cpu capabilities: MMX2 SSE2Fast SSSE3 SSE4.2 AVX FMA3 BMI2 AVX2
[libx264 @ 0x55672b1992c0] profile High, level 3.1
[libx264 @ 0x55672b1992c0] 264 - core 155 r2917 0a84d98 - H.264/MPEG-4 AVC codec - Copyleft 2003-2018 - http://www.videolan.org/x264.html - options: cabac=1 ref=1 deblock=1:0:0 analyse=0x3:0x113 me=hex subme=2 psy=1 psy_rd=1.00:0.00 mixed_ref=0 me_range=16 chroma_me=1 trellis=0 8x8dct=1 cqm=0 deadzone=21,11 fast_pskip=1 chroma_qp_offset=0 threads=22 lookahead_threads=5 sliced_threads=0 nr=0 decimate=1 interlaced=0 bluray_compat=0 constrained_intra=0 bframes=3 b_pyramid=2 b_adapt=1 b_bias=0 direct=1 weightb=1 open_gop=0 weightp=1 keyint=250 keyint_min=23 scenecut=40 intra_refresh=0 rc_lookahead=10 rc=crf mbtree=1 crf=18.0 qcomp=0.60 qpmin=0 qpmax=69 qpstep=4 ip_ratio=1.40 aq=1:1.00
Output #0, mp4, to '/var/www/html/project/media/video/watermarks/VID-20250731-WA0094.mp4':
  Metadata:
    major_brand     : mp42
    minor_version   : 0
    compatible_brands: mp42isom
    encoder         : Lavf58.29.100
    Stream #0:0: Video: h264 (libx264), 1 reference frame (avc1 / 0x31637661), yuv420p(progressive), 1280x720 [SAR 1:1 DAR 16:9], q=-1--1, 23.98 fps, 24k tbn, 23.98 tbc (default)
    Metadata:
      encoder         : Lavc58.54.100 libx264
    Side data:
      cpb: bitrate max/min/avg: 0/0/0 buffer size: 0 vbv_delay: -1
    Stream #0:1: Audio: aac (LC) (mp4a / 0x6134706D), 48000 Hz, stereo, fltp, delay 1024, 128 kb/s (default)
    Metadata:
      encoder         : Lavc58.54.100 aac
[Parsed_concat_4 @ 0x55672c1810c0] EOF on in0:v0, 1 streams left in segment.
[Parsed_concat_4 @ 0x55672c1810c0] EOF on in0:a0, 0 streams left in segment.
[Parsed_concat_4 @ 0x55672c1810c0] Segment finished at pts=38186666
Past duration 0.640373 too large
Past duration 0.681328 too large
Past duration 0.722282 too large
Past duration 0.763237 too large
Past duration 0.804192 too large
Past duration 0.845177 too large
Past duration 0.886131 too large
Past duration 0.927086 too large
Past duration 0.968040 too large
Past duration 0.664330 too large
*** dropping frame 944 from stream 0 at ts 943
Past duration 0.705315 too large
Past duration 0.746269 too large
Past duration 0.787224 too large
Past duration 0.828178 too large
Past duration 0.869133 too large
Past duration 0.910088 too large
Past duration 0.951042 too large
Past duration 0.992027 too large
[Parsed_concat_4 @ 0x55672c1810c0] EOF on in1:v0, 1 streams left in segment.
[Parsed_concat_4 @ 0x55672c1810c0] EOF on in1:a0, 0 streams left in segment.
[Parsed_concat_4 @ 0x55672c1810c0] Segment finished at pts=40205353
No more output streams to write to, finishing.
frame=  964 fps= 59 q=-1.0 Lsize=   30554kB time=00:00:40.21 bitrate=6224.2kbits/s dup=0 drop=1 speed=2.48x    
[AVIOContext @ 0x55672b07ec00] Statistics: 0 seeks, 32 writeouts
video:29899kB audio:627kB subtitle:0kB other streams:0kB global headers:0kB muxing overhead: 0.088931%
Input file #0 (/var/www/html/project/media/video/original/VID-20250731-WA0094.mp4):
  Input stream #0:0 (video): 915 packets read (11786174 bytes); 915 frames decoded; 
  Input stream #0:1 (audio): 1790 packets read (1514257 bytes); 1790 frames decoded (1832960 samples); 
  Total: 2705 packets (13300431 bytes) demuxed
Input file #1 (/var/www/html/project/static/images/templates/Codino.mp4):
  Input stream #1:0 (audio): 89 packets read (26579 bytes); 87 frames decoded (89024 samples); 
  Input stream #1:1 (video): 50 packets read (203365 bytes); 50 frames decoded; 
  Total: 139 packets (229944 bytes) demuxed
Output file #0 (/var/www/html/project/media/video/watermarks/VID-20250731-WA0094.mp4):
  Output stream #0:0 (video): 964 frames encoded; 964 packets muxed (30616916 bytes); 
  Output stream #0:1 (audio): 1885 frames encoded (1929857 samples); 1886 packets muxed (642176 bytes); 
  Total: 2850 packets (31259092 bytes) muxed
[AVIOContext @ 0x55672b174dc0] Statistics: 2 seeks, 123 writeouts
[libx264 @ 0x55672b1992c0] frame I:10    Avg QP:15.74  size: 78158
[libx264 @ 0x55672b1992c0] frame P:439   Avg QP:17.99  size: 39450
[libx264 @ 0x55672b1992c0] frame B:515   Avg QP:20.05  size: 24304
[libx264 @ 0x55672b1992c0] consecutive B-frames: 22.2% 14.9% 14.3% 48.5%
[libx264 @ 0x55672b1992c0] mb I  I16..4: 23.1% 26.0% 51.0%
[libx264 @ 0x55672b1992c0] mb P  I16..4: 15.0% 23.9% 12.7%  P16..4: 15.6% 10.2%  7.3%  0.0%  0.0%    skip:15.4%
[libx264 @ 0x55672b1992c0] mb B  I16..4:  4.6%  6.2%  3.3%  B16..8: 23.9% 14.1%  5.4%  direct:10.5%  skip:32.1%  L0:42.8% L1:41.9% BI:15.3%
[libx264 @ 0x55672b1992c0] 8x8 transform intra:45.1% inter:18.9%
[libx264 @ 0x55672b1992c0] coded y,uvDC,uvAC intra: 50.8% 54.2% 29.7% inter: 21.5% 28.0% 4.0%
[libx264 @ 0x55672b1992c0] i16 v,h,dc,p: 45% 37% 10%  8%
[libx264 @ 0x55672b1992c0] i8 v,h,dc,ddl,ddr,vr,hd,vl,hu: 23% 37% 17%  3%  4%  3%  6%  3%  4%
[libx264 @ 0x55672b1992c0] i4 v,h,dc,ddl,ddr,vr,hd,vl,hu: 19% 25% 12%  6%  9%  7% 10%  6%  8%
[libx264 @ 0x55672b1992c0] i8c dc,h,v,p: 50% 27% 17%  7%
[libx264 @ 0x55672b1992c0] Weighted P-Frames: Y:3.4% UV:1.4%
[libx264 @ 0x55672b1992c0] kb/s:6085.43
[aac @ 0x55672b0d4740] Qavg: 1372.075
[AVIOContext @ 0x55672b087ac0] Statistics: 49402950 bytes read, 1317 seeks
[AVIOContext @ 0x55672b0bd2c0] Statistics: 1530915 bytes read, 42 seeks
